<?xml version="1.0" standalone="no"?>
<!DOCTYPE svg PUBLIC "-//W3C//DTD SVG 20010904//EN"
 "http://www.w3.org/TR/2001/REC-SVG-20010904/DTD/svg10.dtd">
<svg version="1.0" xmlns="http://www.w3.org/2000/svg"
 width="774.000000pt" height="338.000000pt" viewBox="0 0 774.000000 338.000000"
 preserveAspectRatio="xMidYMid meet">
<metadata>
Created by potrace 1.15, written by Peter Selinger 2001-2017
</metadata>
<g transform="translate(0.000000,338.000000) scale(0.100000,-0.100000)"
fill="#000000" stroke="none">
<path d="M0 1690 l0 -1690 3870 0 3870 0 0 1690 0 1690 -3870 0 -3870 0 0
-1690z m4942 1339 c323 -50 541 -259 573 -551 l6 -58 -209 0 -209 0 -6 55 c-7
66 -43 133 -92 171 -111 84 -359 85 -469 0 -67 -51 -98 -175 -61 -245 19 -37
84 -92 143 -122 26 -13 49 -27 52 -31 3 -4 73 -30 156 -57 266 -89 374 -142
493 -241 285 -237 240 -702 -84 -872 -254 -132 -643 -131 -914 4 -113 57 -241
181 -288 279 -31 65 -63 191 -63 249 l0 30 204 0 204 0 12 -66 c6 -37 20 -84
30 -104 26 -51 102 -116 158 -134 75 -25 189 -36 270 -26 164 21 242 95 242
227 -1 79 -26 132 -90 182 -63 50 -102 68 -305 137 -351 121 -537 249 -614
424 -46 106 -51 250 -11 366 69 200 272 343 545 384 77 12 249 11 327 -1z
m-3761 -35 c193 -33 346 -109 469 -233 86 -87 155 -191 199 -303 32 -82 68
-240 73 -323 l2 -50 -777 -3 -777 -2 0 465 0 465 358 0 c284 0 378 -3 453 -16z
m2314 -963 c201 -539 369 -989 372 -1001 5 -20 4 -20 -213 -18 l-217 3 -54
160 c-29 88 -60 179 -69 203 l-16 42 -362 0 -361 0 -68 -205 -68 -205 -219 0
-219 0 13 38 c7 20 89 240 181 487 92 248 198 531 235 630 36 99 122 330 190
513 l124 332 192 0 191 0 368 -979z m2715 574 l0 -405 374 0 c205 0 388 3 405
6 l31 7 0 398 0 399 205 0 205 0 0 -995 0 -995 -205 0 -205 0 0 430 0 430
-405 0 -405 0 0 -430 0 -430 -205 0 -205 0 0 995 0 995 205 0 205 0 0 -405z
m-5160 -695 c19 -19 20 -33 20 -459 l0 -439 -22 -6 c-13 -3 -170 -6 -350 -6
l-328 0 0 465 0 465 330 0 c317 0 331 -1 350 -20z m870 -19 c0 -124 -67 -349
-141 -474 -108 -182 -334 -347 -521 -382 l-38 -7 0 425 c0 414 0 425 21 451
l20 26 330 0 329 0 0 -39z m-107 -1284 c-2 -4 -3 -14 -3 -22 0 -13 -7 -15 -34
-9 -78 14 -136 -35 -136 -115 0 -31 7 -49 29 -73 27 -30 34 -33 85 -32 47 1
56 -1 56 -16 0 -23 -20 -30 -79 -30 -185 0 -206 279 -24 309 42 7 109 0 106
-12z m1956 -6 c12 -7 31 -31 42 -54 34 -75 20 -156 -36 -207 -22 -21 -36 -25
-90 -25 -57 0 -67 3 -95 30 -61 58 -64 169 -7 232 47 51 118 60 186 24z m1261
-16 c69 -66 56 -207 -23 -255 -41 -26 -112 -26 -153 -1 -61 37 -83 144 -45
219 43 82 154 101 221 37z m2365 25 c3 -5 2 -15 -1 -24 -5 -12 -15 -15 -43
-10 -73 11 -96 -49 -29 -77 58 -24 88 -57 88 -98 0 -66 -49 -98 -136 -88 -54
6 -58 9 -49 37 5 15 12 19 23 15 43 -17 69 -16 91 2 34 28 21 55 -41 84 -99
46 -96 148 4 168 37 8 86 3 93 -9z m-6795 -15 c0 -23 -4 -25 -45 -25 l-45 0 0
-130 0 -130 -25 0 -25 0 0 130 0 130 -45 0 c-41 0 -45 2 -45 25 l0 25 115 0
115 0 0 -25z m572 0 c-4 -23 -8 -25 -63 -25 l-59 0 0 -40 0 -40 60 0 c53 0 60
-2 60 -20 0 -18 -7 -20 -60 -20 l-60 0 0 -45 0 -45 65 0 c63 0 65 -1 65 -25 0
-25 -1 -25 -90 -25 l-90 0 0 155 0 155 89 0 88 0 -5 -25z m1108 -35 l0 -60 65
0 65 0 0 60 c0 57 1 60 25 60 l25 0 0 -155 0 -155 -25 0 c-24 0 -25 2 -25 70
l0 70 -65 0 -65 0 0 -70 0 -70 -30 0 -30 0 0 155 0 155 30 0 30 0 0 -60z m697
18 c15 -24 45 -75 68 -113 l40 -71 -3 113 -4 113 26 0 26 0 0 -155 0 -155 -27
0 c-29 0 -45 22 -130 175 l-33 60 0 -117 0 -118 -25 0 -25 0 0 155 0 155 30 0
c24 0 35 -8 57 -42z m1313 -88 l0 -130 65 0 c63 0 65 -1 65 -25 0 -25 -1 -25
-90 -25 l-90 0 0 155 0 155 25 0 25 0 0 -130z m1425 105 c0 -18 -6 -20 -50
-17 -59 3 -110 -23 -126 -66 -14 -35 -5 -98 16 -122 24 -26 71 -43 100 -36 21
5 25 12 25 46 0 36 -3 40 -25 40 -18 0 -25 5 -25 20 0 17 7 20 50 20 l50 0 0
-79 c0 -89 -1 -91 -92 -91 -90 0 -140 35 -158 110 -14 60 -1 116 38 155 38 38
57 44 132 42 58 -2 65 -4 65 -22z m495 -130 l0 -155 -30 0 -30 0 0 155 0 155
30 0 30 0 0 -155z m600 130 c0 -24 -3 -25 -60 -25 l-60 0 0 -40 0 -40 55 0
c48 0 55 -2 55 -20 0 -18 -7 -20 -55 -20 l-55 0 0 -45 0 -45 65 0 c63 0 65 -1
65 -25 0 -25 0 -25 -95 -25 l-95 0 0 155 0 155 90 0 c89 0 90 0 90 -25z"/>
<path d="M2812 2132 c-67 -202 -122 -371 -122 -375 0 -4 112 -7 249 -7 l249 0
-69 208 c-37 114 -94 282 -126 374 l-59 167 -122 -367z"/>
<path d="M3634 557 c-37 -32 -45 -117 -15 -164 37 -59 117 -51 142 15 6 15 9
49 6 76 -8 85 -76 122 -133 73z"/>
<path d="M4879 551 c-25 -26 -29 -37 -29 -86 0 -49 4 -60 29 -86 33 -33 50
-35 91 -14 55 29 64 142 15 191 -33 32 -70 31 -106 -5z"/>
</g>
</svg>
